# xmcd
#
# Track frame offsets: 
#        150
#        102937
#        122574
#        150244
#        163459
#        181149
#        197824
#        226019
#        247712
#        261804
#        279622
#        310934
#        330274
#
# Disc length: 4621 seconds
#
# Revision: 3
# Processed by: cddbd v1.5.1PL0 Copyright (c) Steve Scherf et al.
# Submitted via: ExactAudioCopy v0.95a5
#
DISCID=9f120b0d
DTITLE=Skinny Puppy - Brap Vol 4
DYEAR=1996
DGENRE=
TTITLE0=No Audio
TTITLE1=Jackhammer
TTITLE2=Splasher
TTITLE3=Double Cross
TTITLE4=Yo Yo Scrape
TTITLE5=Carry
TTITLE6=Guilty
TTITLE7=The Soul That Creates
TTITLE8=Brap
TTITLE9=Sparkless
TTITLE10=Dead Dall
TTITLE11=Dead Lines
TTITLE12=Choralone
EXTD=
EXTT0=
EXTT1=
EXTT2=
EXTT3=
EXTT4=
EXTT5=
EXTT6=
EXTT7=
EXTT8=
EXTT9=
EXTT10=
EXTT11=
EXTT12=
PLAYORDER=
